# xmcd
#
# Track frame offsets:
#	150
#	16612
#	34710
#	45040
#	55160
#	63882
#	75830
#	87457
#	100130
#	115570
#	126572
#	136747
#	149547
#	164632
#	180087
#	197227
#	215307
#	226507
#	237707
#	245187
#	261407
#	268807
#	277287
#
# Disc length: 3773 seconds
#
# Revision: 2
# Processed by: cddbd v1.5.1PL0 Copyright (c) Steve Scherf et al.
# Submitted via: dBpowerAMP V4.0
#
DISCID=410ebb17
DTITLE=Χρήστος Νικολόπουλος - Λαικό ξεφάντωμα
DYEAR=1900
DGENRE=Laika
TTITLE0=Κάτσε καλά
TTITLE1=Σαλονικιός
TTITLE2=Για κοίτα με στα μάτια
TTITLE3=Πολλές φορές
TTITLE4=Εσύ είσαι η αιτία που υποφέρω
TTITLE5=Γλυκιέ μου τύραννε
TTITLE6=Τάκα-τάκα
TTITLE7=Το πλοίο θα σαλπάρει
TTITLE8=Στα οπα-οπα σ'είχα
TTITLE9=Είναι το κρύο τσουχτερό
TTITLE10=Τα δαχτυλίδια
TTITLE11=’νθρωποι είμαστε
TTITLE12=Μια είναι η ουσία
TTITLE13=Πότε Βούδας πότε κούδας
TTITLE14=Σόλο Περπινιάδη
TTITLE15=Αποκοιμήθηκα
TTITLE16=Βρέχει φωτιά στη στράτα μου
TTITLE17=Που γυρνάς
TTITLE18=Ο μαθητής
TTITLE19=Με παρέσυρε το ρέμα
TTITLE20=Ναυτάκι Συριανό
TTITLE21=Είμαστε αλάνια
TTITLE22=Σόλο Ζαμπέτα
EXTD=
EXTT0=
EXTT1=
EXTT2=
EXTT3=
EXTT4=
EXTT5=
EXTT6=
EXTT7=
EXTT8=
EXTT9=
EXTT10=
EXTT11=
EXTT12=
EXTT13=
EXTT14=
EXTT15=
EXTT16=
EXTT17=
EXTT18=
EXTT19=
EXTT20=
EXTT21=
EXTT22=
PLAYORDER=
